<svg class="diagram-root" style="background: #f5f6f6" xmlns="http://www.w3.org/2000/svg" xmlns:xlink="http://www.w3.org/1999/xlink"><style>.diagram-root { font-family: "Helvetica Neue", sans-serif; font-size: 12px; } .t { overflow: visible; } .t-bg { y: 40; fill: #fff;   } .th { fill: #005aa0;   } .tht { fill: #fff; font-size: 14px;  } .tf { fill: #323c46; overflow: visible; } .tf.pk { fill: #005aa0; font-weight: bold; } .tf.fk { font-weight: bold; } .ty { fill: #adb1b5; font-weight: normal; text-anchor: end; } .r { fill: transparent; stroke: #c3c3c3; stroke-width: 1; } .l { stroke: 1; } .i { fill: #c2c7ce; stroke: #c2c7ce; } .i.ix { fill: #afb3b6; stroke: #000; } .fa { fill: transparent; overflow: visible; } .fa .bg.hover { fill: #f7f7f7; } .c { cy: 12; r: 4; stroke: #d2d2dc; fill: #d2d2dc; } .hr { fill: transparent; stroke: #323c46; stroke-opacity: 0.035; stroke-width: 13; } .dc { stroke: #fa5a3c; fill: #fa5a3c; } .x { stroke: white; stroke-width: 1; } .hl .th { fill: #1b9bff; } .hl .tht {  } .fhl .bg { fill: #e7f4ff; } .fhls .bg {  } .r.hl { stroke: #1b9bff; } .dim { opacity: 0.25; }</style><g class="drawing-wrapper" transform="translate(105, 13) scale(1,1)"><g class="rs"><path d="M 171 274 m -1, 0 a 1,1 0 1,0 2,0 a 1,1 0 1,0 -2,0 M 171 274 m -0.5, 0 a 0.5,0.5 0 1,0 1,0 a 0.5,0.5 0 1,0 -1,0  M171 274 L171 274 159 274 M 171 280 m -1, 0 a 1,1 0 1,0 2,0 a 1,1 0 1,0 -2,0 M 171 280 m -0.5, 0 a 0.5,0.5 0 1,0 1,0 a 0.5,0.5 0 1,0 -1,0  M171 280 L171 280 164 274 171 268 M 171 268 m -1, 0 a 1,1 0 1,0 2,0 a 1,1 0 1,0 -2,0 M 171 268 m -0.5, 0 a 0.5,0.5 0 1,0 1,0 a 0.5,0.5 0 1,0 -1,0  M159 274 Q 141.99 274, 124.97 176.5 T 90.93 79 M 78.93 79 m -1, 0 a 1,1 0 1,0 2,0 a 1,1 0 1,0 -2,0 M 78.93 79 m -0.5, 0 a 0.5,0.5 0 1,0 1,0 a 0.5,0.5 0 1,0 -1,0  M78.93 79 L78.93 79 90.93 79 M84.93 85 L84.93 85 84.93 73" id="h881017358" class="r"/><path d="M 572 210 m -1, 0 a 1,1 0 1,0 2,0 a 1,1 0 1,0 -2,0 M 572 210 m -0.5, 0 a 0.5,0.5 0 1,0 1,0 a 0.5,0.5 0 1,0 -1,0  M572 210 L572 210 560 210 M 572 216 m -1, 0 a 1,1 0 1,0 2,0 a 1,1 0 1,0 -2,0 M 572 216 m -0.5, 0 a 0.5,0.5 0 1,0 1,0 a 0.5,0.5 0 1,0 -1,0  M572 216 L572 216 565 210 572 204 M 572 204 m -1, 0 a 1,1 0 1,0 2,0 a 1,1 0 1,0 -2,0 M 572 204 m -0.5, 0 a 0.5,0.5 0 1,0 1,0 a 0.5,0.5 0 1,0 -1,0  M560 210 Q 539.53 210, 519.05 142 T 478.1 74 M 466.1 74 m -1, 0 a 1,1 0 1,0 2,0 a 1,1 0 1,0 -2,0 M 466.1 74 m -0.5, 0 a 0.5,0.5 0 1,0 1,0 a 0.5,0.5 0 1,0 -1,0  M466.1 74 L466.1 74 478.1 74 M472.1 80 L472.1 80 472.1 68" id="h853493684" class="r"/></g><g class="hrs"/><g class="ts"><svg width="161.93" height="125" x="-83" y="22" id="h760590801" class="t"><rect height="40" width="161.93" class="th"/><text x="13" y="25" class="tht">Seller</text><rect height="85" width="161.93" class="t-bg" y="40"/><text x="13" y="61" class="tf pk">id<tspan x="148.93" class="ty">int</tspan></text><path d="M7,14A2,2 0 0,1 5,12A2,2 0 0,1 7,10A2,2 0 0,1 9,12A2,2 0 0,1 7,14M12.65,10C11.83,7.67 9.61,6 7, 6A6, 6 0 0, 0 1, 12A6, 6 0 0, 0 7, 18C9.61, 18 11.83, 16.33 12.65, 14H17V18H21V14H23V10H12.65Z" class="i pk" transform="translate(113.29666679382325, 48) scale(0.65)"/><text x="13" y="86" class="tf">username<tspan x="148.93" class="ty">CharField</tspan></text><text x="13" y="111" class="tf">email<tspan x="148.93" class="ty">EmailField</tspan></text></svg><svg width="295.1" height="275" x="171" y="17" id="h3119304962" class="t"><rect height="40" width="295.1" class="th"/><text x="13" y="25" class="tht">Product</text><rect height="235" width="295.1" class="t-bg" y="40"/><text x="13" y="61" class="tf pk">id<tspan x="282.1" class="ty">int</tspan></text><path d="M7,14A2,2 0 0,1 5,12A2,2 0 0,1 7,10A2,2 0 0,1 9,12A2,2 0 0,1 7,14M12.65,10C11.83,7.67 9.61,6 7, 6A6, 6 0 0, 0 1, 12A6, 6 0 0, 0 7, 18C9.61, 18 11.83, 16.33 12.65, 14H17V18H21V14H23V10H12.65Z" class="i pk" transform="translate(246.46666679382326, 48) scale(0.65)"/><text x="13" y="86" class="tf">name<tspan x="282.1" class="ty">CharField</tspan></text><text x="13" y="111" class="tf">description<tspan x="282.1" class="ty">TextField</tspan></text><text x="13" y="136" class="tf">price<tspan x="282.1" class="ty">DecimalField</tspan></text><text x="13" y="161" class="tf">percentage_rate<tspan x="282.1" class="ty">PositiveSmallIntegerField</tspan></text><text x="13" y="186" class="tf">insurance_period<tspan x="282.1" class="ty">DurationField</tspan></text><text x="13" y="211" class="tf">published<tspan x="282.1" class="ty">DateTimeField</tspan></text><text x="13" y="236" class="tf">active<tspan x="282.1" class="ty">BooleanField</tspan></text><text x="13" y="261" class="tf fk">seller<tspan x="282.1" class="ty">int</tspan></text></svg><svg width="162.32" height="175" x="572" y="53" id="h1304670300" class="t"><rect height="40" width="162.32" class="th"/><text x="13" y="25" class="tht">Customer</text><rect height="135" width="162.32" class="t-bg" y="40"/><text x="13" y="61" class="tf pk">id<tspan x="149.32" class="ty">int</tspan></text><path d="M7,14A2,2 0 0,1 5,12A2,2 0 0,1 7,10A2,2 0 0,1 9,12A2,2 0 0,1 7,14M12.65,10C11.83,7.67 9.61,6 7, 6A6, 6 0 0, 0 1, 12A6, 6 0 0, 0 7, 18C9.61, 18 11.83, 16.33 12.65, 14H17V18H21V14H23V10H12.65Z" class="i pk" transform="translate(113.68666679382324, 48) scale(0.65)"/><text x="13" y="86" class="tf">name<tspan x="149.32" class="ty">CharField</tspan></text><text x="13" y="111" class="tf">telephone<tspan x="149.32" class="ty">CharField</tspan></text><text x="13" y="136" class="tf">email<tspan x="149.32" class="ty">EmailField</tspan></text><text x="13" y="161" class="tf fk">product<tspan x="149.32" class="ty">int</tspan></text></svg></g></g><text class="qdbd-link" x="10" y="20">www.quickdatabasediagrams.com</text></svg>